<svg width="1579" height="636" viewBox="0 0 1579 636" fill="none" xmlns="http://www.w3.org/2000/svg">
<path d="M937.013 211.66C937.013 211.66 944.665 213.122 947.513 216.66C951.083 221.094 949.013 231.16 949.013 231.16C949.013 231.16 946.911 242.132 947.513 249.16C948.414 259.682 951.217 265.523 956.513 274.66C962.612 285.183 973.513 288.16 977.513 297.66C981.513 307.16 994.513 347.66 1016.51 371.66C1038.51 395.66 1032.51 388.16 1036.01 392.16C1039.51 396.16 1033.97 409.543 1039.51 418.16C1045.11 426.863 1062.01 426.66 1062.01 432.16C1062.01 437.66 1061.34 442.251 1062.01 448.66C1062.98 457.892 1070.26 462.652 1068.01 471.66C1066.83 476.408 1068.51 479.66 1062.01 482.66C1055.51 485.66 1041.82 479.14 1032.01 485.66C1025.41 490.051 1019.51 501.66 1019.51 501.66C1019.51 501.66 1015.96 511.634 1016.51 518.16C1017.16 525.747 1019.08 530.36 1024.01 536.16C1028.68 541.646 1034.84 540.679 1039.51 546.16C1041.9 548.963 1041.9 551.562 1044.51 554.16C1048.6 558.228 1054.84 555.341 1058.01 560.16C1060.61 564.105 1058.04 567.673 1059.51 572.16C1062.79 582.131 1077.93 581.163 1078.01 591.66C1078.09 601.51 1062.01 611.16 1062.01 611.16" stroke="black"/>
<path d="M1019.51 235.16C1019.51 235.16 1018.27 244.735 1019.51 250.66C1020.98 257.669 1023.76 261.061 1027.51 267.16C1031.52 273.679 1036.6 275.579 1039.51 282.66C1042.72 290.46 1037.79 295.479 1041.51 304.16C1045.87 314.324 1060.09 319.192 1061.51 330.16C1062.73 339.545 1050.94 342.696 1051.01 352.16C1051.09 361.623 1060.05 360.71 1068.01 371.66C1072.01 377.16 1077.52 388.195 1075.51 396.66C1072.21 410.607 1044.01 422.16 1044.01 422.16M900.513 194.16C900.513 194.16 883.794 192.944 876.513 199.16C873.334 201.873 870.86 203.568 870.013 207.66C868.827 213.39 873.44 216.18 876.513 221.16C880.95 228.351 884.906 231.337 890.513 237.66C901.69 250.265 921.513 262.66 920.013 271.16C918.513 279.66 911.013 275.16 904.513 280.16C898.013 285.16 899.513 289.66 903.013 301.66C906.513 313.66 923.49 331.622 937.513 350.16C941.377 355.268 944.571 357.47 947.513 363.16C952.085 372.004 949.043 378.828 952.513 388.16C955.864 397.173 966.435 403.66 964.513 409.66C963.356 413.27 963.879 412.679 961.013 415.16C954.621 420.691 945.438 417.219 937.513 420.16C925.198 424.729 912.513 442.66 912.513 442.66M912.513 442.66C912.513 442.66 897.862 413.459 884.013 398.16C873.793 386.87 854.513 372.66 854.513 372.66C854.513 372.66 840.3 360.515 835.013 350.16C824.979 330.509 844.399 313.628 835.013 293.66C825.94 274.358 801.778 277.82 793.513 258.16C790.704 251.48 789.694 247.373 789.013 240.16C788.258 232.168 790.513 219.66 790.513 219.66M912.513 442.66C912.513 442.66 925.256 457.928 931.013 469.16C936.59 480.042 944.238 486.739 941.513 498.66C939.81 506.105 939.397 505.288 934.513 511.16C924.946 522.66 887.513 531.66 878.513 542.66C875.615 546.201 871.013 551.66 871.013 551.66M614.513 216.66C614.513 216.66 612.834 224.576 614.513 229.16C616.181 233.714 617.045 234.364 622.513 238.66C627.98 242.956 631.045 245.364 636.513 249.66C641.98 253.956 641.323 259.552 646.013 264.66C649.766 268.748 652.376 270.61 657.013 273.66C665.646 279.339 672.347 278.886 681.513 283.66C689.92 288.039 695.944 289.377 702.013 296.66C706.989 302.632 707.648 307.433 710.513 314.66C716.446 329.628 711.371 341.405 720.513 354.66C725.216 361.48 728.749 364.876 735.513 369.66C741.573 373.946 746.287 374.118 752.513 378.16C763.515 385.302 768.269 391.457 776.513 401.66C784.513 411.561 787.735 418.086 794.013 429.16C803.274 445.497 802.694 458.065 814.513 472.66C821.993 481.898 830.081 483.503 837.013 493.16C841.038 498.768 844.917 501.782 845.513 508.66C846.099 515.427 840.013 525.16 840.013 525.16M418.513 433.66C418.513 433.66 427.156 437.201 433.013 437.66C440.309 438.231 444.307 435.945 451.513 434.66C458.562 433.402 462.394 430.381 469.513 431.16C475.533 431.819 484.013 436.66 484.013 436.66C484.013 436.66 503.013 460.66 530.513 479.16M530.513 479.16C530.513 479.16 525.136 463.837 528.013 454.66C529.635 449.483 534.933 448.085 535.013 442.66C535.082 437.942 530.884 436.297 530.013 431.66C529.182 427.242 530.513 420.16 530.513 420.16M530.513 479.16C530.513 479.16 529.838 521.224 549.013 530.66C554.622 533.42 558.948 531.811 564.513 534.66C568.615 536.759 569.792 539.809 574.013 541.66C579.247 543.956 583.123 541.755 588.513 543.66C596.282 546.405 605.513 556.16 605.513 556.16M332.013 416.16C332.013 416.16 342.234 414.285 344.013 409.16C344.909 406.577 345.013 406.16 344.013 402.16C343.013 398.16 334.391 398.12 328.013 396.16C315.308 392.255 306.706 395.448 294.513 390.16C281.362 384.456 278.791 373.059 265.513 367.66C256.112 363.838 250.156 362.974 240.013 362.66C231.176 362.386 226.349 364.873 217.513 365.16C207.347 365.489 201.629 362.611 191.513 363.66C183.739 364.466 178.603 363.959 172.013 368.16C166.529 371.655 162.596 374.353 161.013 380.66C159.614 386.233 161.073 389.957 163.513 395.16C168.434 405.655 182.985 400.971 188.513 411.16C190.662 415.122 191.209 417.724 192.013 422.16C193.126 428.308 192.013 438.16 192.013 438.16C192.013 438.16 191.758 441.814 190.513 443.66C188.198 447.089 180.513 447.16 180.513 447.16M125.513 425.66C125.513 425.66 145.013 434.66 150.513 442.16C156.013 449.66 155.459 450.306 156.513 456.16C157.343 460.772 156.971 463.496 156.513 468.16C155.594 477.504 149.731 481.773 149.513 491.16C149.417 495.278 149.106 497.788 150.513 501.66C153.305 509.343 160.282 509.867 166.513 515.16C174.745 522.153 179.782 525.616 187.513 533.16C191.763 537.307 194.496 539.374 198.013 544.16C201.944 549.51 203.349 553.079 206.013 559.16C209.63 567.418 207.804 573.8 213.013 581.16C215.327 584.43 218.457 584.968 220.013 588.66C222.065 593.532 217.52 597.088 219.013 602.16C221.04 609.047 225.657 611.819 232.013 615.16C240.843 619.801 248.378 612.652 257.513 616.66C261.778 618.531 267.513 623.16 267.513 623.16C267.513 623.16 274.866 629.662 280.513 632.16C290.716 636.674 298.013 634.16 309.013 634.16C320.013 634.16 322.013 632.16 322.013 632.16M5.51263 191.16C5.51263 191.16 5.9424 197.886 5.51263 202.16C4.78275 209.419 0.691407 212.866 0.51263 220.16C0.336173 227.359 2.02575 231.402 4.51263 238.16C7.1982 245.458 9.06433 249.661 14.0126 255.66C17.7069 260.138 20.158 262.476 25.0126 265.66C31.1676 269.697 35.7207 269.823 42.5126 272.66C46.6291 274.379 48.6288 276.333 53.0126 277.16C59.2005 278.327 62.2392 274.646 68.0126 277.16C74.2195 279.862 72.3027 279.997 76.0126 285.66C79.7226 291.322 84.5126 287.66 88.0126 291.66C91.5126 295.66 96.4816 300.838 103.513 304.16C113.281 308.775 120.543 304.497 131.013 307.16C139.939 309.43 143.954 313.991 153.013 315.66C167.518 318.331 175.938 313.425 190.513 311.16C201.299 309.484 207.531 309.205 218.013 306.16C230.028 302.669 235.595 297.471 247.513 293.66C255.948 290.962 260.833 289.917 269.513 288.16C278.228 286.395 292.013 284.66 292.013 284.66M421.513 235.16C421.513 235.16 415.828 225.728 411.013 220.66C404.961 214.29 394.565 215.808 393.013 207.16C391.922 201.082 394.688 197.363 398.013 192.16C403.553 183.489 413.095 185.277 420.013 177.66C424.966 172.205 427.426 168.559 430.013 161.66C433.656 151.942 431.223 145.508 432.013 135.16C432.594 127.544 431.533 123.037 433.513 115.66C436.463 104.663 445.747 101.704 448.513 90.6598C449.707 85.8904 450.941 82.988 450.013 78.1598C449.188 73.8721 445.013 68.1598 445.013 68.1598M530.513 58.1598C530.513 58.1598 526.536 67.1067 528.013 72.6598C529.787 79.3314 536.133 79.8229 540.513 85.1598C545.253 90.9374 547.471 94.5785 551.013 101.16C553.953 106.624 554.436 110.271 557.513 115.66C562.335 124.108 564.748 130.029 573.013 135.16C585.952 143.193 596.785 135.447 612.013 135.16C627.447 134.869 636.08 133.282 651.513 133.66C660.901 133.889 666.283 133.427 675.513 135.16C688.203 137.542 693.947 143.689 706.513 146.66C716.295 148.972 722.157 152.137 732.013 150.16C739.207 148.717 744.165 147.668 749.013 142.16C754.833 135.546 749.349 127.635 754.013 120.16C756.864 115.59 759.069 113.205 763.513 110.16C771.131 104.94 777.287 105.091 786.513 104.66C793.965 104.311 798.678 106.66 805.513 106.66C812.347 106.66 816.178 106.66 823.013 106.66M853.013 179.66L870.013 172.16C870.013 172.16 880.177 167.608 887.013 165.66C891.249 164.452 898.013 163.16 898.013 163.16C898.013 163.16 909.149 154.518 917.013 150.16C926.971 144.641 933.674 143.93 944.013 139.16C961.475 131.103 969.557 123.231 987.013 115.16C996.788 110.64 1002.3 108.08 1012.51 104.66C1024.91 100.508 1032.14 98.9518 1045.01 96.6598C1051.81 95.4493 1059.67 97.8972 1063.51 92.1598C1065.09 89.797 1064.71 89.9958 1064.51 87.1598C1064.35 84.88 1060.51 83.6598 1061.51 80.6598C1062.51 77.6598 1085.01 65.6598 1089.01 64.6598C1093.01 63.6598 1099.01 62.6598 1101.01 65.6598C1103.01 68.6598 1099.01 71.1598 1102.01 81.1598C1105.01 91.1598 1113.01 89.1598 1110.51 97.6598C1108.01 106.16 1125.48 105.966 1136.01 106.66C1147.64 107.425 1155.5 106.392 1165.01 99.6598C1174.96 92.6152 1179.56 85.1927 1181.51 73.1598C1182.33 68.1488 1182.59 65.1206 1181.51 60.1598C1179.3 49.9684 1170.44 48.0671 1165.01 39.1598C1159.97 30.8786 1158.16 25.6459 1154.51 16.6598C1151.94 10.3056 1148.51 0.15979 1148.51 0.15979M1096.51 161.16C1096.51 161.16 1107.98 178.351 1118.01 186.66C1127.71 194.693 1135.45 195.796 1146.01 202.66C1153.64 207.621 1156.33 213.442 1165.01 216.16C1173.4 218.784 1179.14 218.821 1187.51 216.16C1206.19 210.225 1196.01 183.217 1212.51 172.66C1220.06 167.833 1225.06 164.969 1234.01 164.66C1243.89 164.319 1255.51 166.66 1258.01 172.66C1260.51 178.66 1268.56 196.814 1281.01 207.16C1292.85 216.989 1301.8 220.848 1317.01 223.16C1334.4 225.804 1349.01 216.66 1365.01 214.66C1381.01 212.66 1384.03 218.638 1398.51 218.66C1426.46 218.701 1441.58 210.53 1469.51 209.66C1478.69 209.374 1483.99 211.332 1493.01 209.66C1500.97 208.185 1501.01 202.16 1513.01 203.66C1525.01 205.16 1529.88 209.293 1541.51 208.66C1548.94 208.256 1560.01 205.16 1560.01 205.16M1495.01 162.66C1495.01 162.66 1483.58 161.28 1478.51 156.66C1472.89 151.528 1476.39 144.05 1471.01 138.66C1465.25 132.885 1458.2 135.829 1451.51 131.16C1443.54 125.593 1444.19 116.928 1436.01 111.66C1425.87 105.123 1417.49 108.146 1405.51 106.66C1385.52 104.18 1375.51 101.66 1354.01 103.66C1332.51 105.66 1317.01 93.6598 1310.51 89.6598C1304.01 85.6598 1288.97 91.3918 1285.01 101.66C1281.39 111.05 1293.56 116.11 1293.01 126.16C1292.67 132.454 1289.08 135.382 1288.51 141.66C1286.84 160.114 1311.51 183.16 1311.51 183.16" stroke="black"/>
<path d="M1211.51 436.66C1211.51 436.66 1224.44 432.031 1233.01 432.16C1241.02 432.28 1245.07 435.663 1253.01 436.66C1263.28 437.948 1269.21 435.705 1279.51 436.66C1290 437.632 1296.11 438.067 1306.01 441.66C1314.3 444.67 1318.83 447.044 1326.01 452.16C1333.22 457.287 1334.87 463.211 1342.51 467.66C1349.45 471.699 1354.09 472.871 1362.01 474.16C1372.63 475.887 1389.51 472.66 1389.51 472.66L1410.51 467.66C1410.51 467.66 1427.53 460.987 1439.01 460.16C1443.49 459.837 1450.51 460.16 1450.51 460.16" stroke="black"/>
<path d="M1201.51 276.66C1201.51 276.66 1223.98 272.639 1238.51 271.16C1257.76 269.2 1268.79 271.306 1288.01 269.16C1301.38 267.667 1322.01 263.66 1322.01 263.66C1322.01 263.66 1346.29 259.193 1362.01 257.66C1383.2 255.593 1416.51 256.16 1416.51 256.16C1416.51 256.16 1426.49 256.333 1432.01 253.66C1437.49 251.008 1438.54 246.663 1443.51 243.16C1453.56 236.077 1460.83 233.801 1473.01 232.16C1480.37 231.169 1484.61 231.688 1492.01 232.16C1508.33 233.201 1516.7 239.494 1533.01 240.66C1541.78 241.286 1545.76 241.401 1554.51 240.66C1563.6 239.89 1578.51 236.66 1578.51 236.66M1317.01 339.16C1317.01 339.16 1319.74 345.871 1323.51 347.66C1327.04 349.331 1333.51 347.66 1333.51 347.66C1333.51 347.66 1343.35 341.164 1350.51 340.66C1355.03 340.342 1357.72 340.714 1362.01 342.16C1369.27 344.603 1370.65 350.777 1377.51 354.16C1384.57 357.633 1389.63 356.47 1397.01 359.16C1406.29 362.536 1411.64 364.707 1419.51 370.66C1427.56 376.745 1429.17 383.318 1437.01 389.66C1440.72 392.657 1442.77 394.479 1447.01 396.66C1454.68 400.604 1460.76 397.887 1468.51 401.66C1477.6 406.082 1482.3 410.328 1488.01 418.66C1490.04 421.616 1490.01 424.098 1492.51 426.66C1497.58 431.839 1503.95 428.081 1510.51 431.16C1514.24 432.91 1519.51 436.66 1519.51 436.66" stroke="black"/>
<path d="M1462.51 330.66C1462.51 330.66 1465.71 338.762 1469.01 343.16C1471.83 346.912 1473.87 348.703 1477.51 351.66C1482.95 356.069 1486.49 358.115 1493.01 360.66C1500.97 363.765 1506.75 361.106 1514.51 364.66C1520.13 367.229 1527.51 373.66 1527.51 373.66C1527.51 373.66 1542.51 387.929 1551.51 397.66C1553.48 399.791 1555.02 400.672 1556.51 403.16C1559.56 408.225 1555.01 419.66 1558.51 418.16M1200.01 346.66C1200.01 346.66 1195.52 350.726 1194.01 354.16C1191.66 359.522 1191.63 363.807 1194.01 369.16C1196.37 374.464 1200.29 375.778 1205.01 379.16C1213.18 385.015 1218.96 386.532 1228.51 389.66C1247.73 395.953 1261.1 387.987 1280.01 395.16C1289.98 398.94 1304.01 408.16 1304.01 408.16C1304.01 408.16 1321.99 421.755 1335.01 427.66C1344.4 431.917 1349.86 434.343 1360.01 436.16C1371.93 438.293 1378.91 435.95 1391.01 436.16C1406.06 436.421 1414.49 436.812 1429.51 437.66C1438.3 438.156 1443.78 436.039 1452.01 439.16C1456.43 440.833 1462.51 445.16 1462.51 445.16" stroke="black"/>
</svg>
